HIERARCHY
ROOT Hips
{
    OFFSET 0.11543774995217591 0.8108526109557606 -0.17089050816145607
    CHANNELS 6 Xposition Yposition Zposition Zrotation Xrotation Yrotation
    JOINT RightUpLeg
    {
        OFFSET -0.11543774995217591 0.0 0.0
        CHANNELS 3 Zrotation Xrotation Yrotation
        JOINT RightLeg
        {
            OFFSET 0.0 -0.3836263405521204 0.0
            CHANNELS 3 Zrotation Xrotation Yrotation
            JOINT RightFoot
            {
                OFFSET 0.0 -0.42722627040364014 0.0
                CHANNELS 3 Zrotation Xrotation Yrotation
                End Site
                {
                    OFFSET 0.0 0.0 0.17089050816145607
                }
            }
        }
    }
    JOINT LeftUpLeg
    {
        OFFSET 0.11543774995217591 0.0 0.0
        CHANNELS 3 Zrotation Xrotation Yrotation
        JOINT LeftLeg
        {
            OFFSET 0.0 -0.3836263405521204 0.0
            CHANNELS 3 Zrotation Xrotation Yrotation
            JOINT LeftFoot
            {
                OFFSET 0.0 -0.42722627040364014 0.0
                CHANNELS 3 Zrotation Xrotation Yrotation
                End Site
                {
                    OFFSET 0.0 0.0 0.17089050816145607
                }
            }
        }
    }
    JOINT Spine
    {
        OFFSET 0.0 0.22190039542260495 0.0
        CHANNELS 3 Zrotation Xrotation Yrotation
        JOINT Spine3
        {
            OFFSET 0.0 0.2522533749206219 0.0
            CHANNELS 3 Zrotation Xrotation Yrotation
            JOINT Neck
            {
                OFFSET 0.0 0.13990424923396272 0.0
                CHANNELS 3 Zrotation Xrotation Yrotation
                End Site
                {
                    OFFSET 0.0 0.05596169969358508 0.0
                }
            }
            JOINT LeftArm
            {
                OFFSET 0.16194419779143654 0.0 0.0
                CHANNELS 3 Zrotation Xrotation Yrotation
                JOINT LeftForeArm
                {
                    OFFSET 0.2873108359234604 0.0 0.0
                    CHANNELS 3 Zrotation Xrotation Yrotation
                    JOINT LeftHand
                    {
                        OFFSET 0.2399145822493774 0.0 0.0
                        CHANNELS 3 Zrotation Xrotation Yrotation
                        End Site
                        {
                            OFFSET 0.09596583289975096 0.0 0.0
                        }
                    }
                }
            }
            JOINT RightArm
            {
                OFFSET -0.16194419779143654 0.0 0.0
                CHANNELS 3 Zrotation Xrotation Yrotation
                JOINT RightForeArm
                {
                    OFFSET -0.2873108359234604 0.0 0.0
                    CHANNELS 3 Zrotation Xrotation Yrotation
                    JOINT RightHand
                    {
                        OFFSET -0.2399145822493774 0.0 0.0
                        CHANNELS 3 Zrotation Xrotation Yrotation
                        End Site
                        {
                            OFFSET -0.09596583289975096 0.0 0.0
                        }
                    }
                }
            }
        }
    }
}
MOTION
Frames: 9
Frame Time: 0.03333333333333333
-0.0 0.8442670440891085 0.0 -0.1252664806790119 11.299501144688117 -130.99752890590582 1.5902773407317584e-15 3.1724951517235514e-32 2.2860236773019026e-15 17.624499580347003 22.896102904624318 -12.564296456079845 0.0 0.0 -1.3914926731402886e-15 10.770669856633 13.605352586797107 -8.652348019041046 4.233052057299854 17.334382484873153 8.085196723980621 0.0 0.0 -1.4908850069360235e-16 -5.086394239649959 -14.47826540068826 -1.7199631256877432 1.573701990394322e-15 -2.2900669394981216e-16 -16.55924340910898 4.263281356267385 3.3567949615585153 167.46575676662806 133.28696045236123 -32.177575587471466 -130.32114596973332 -1.3410165972514781e-14 1.5013840486822747e-15 77.22368930356399 3.1805546814635168e-15 0.0 0.0 -140.03482166980527 -13.119705651691552 133.87639244977348 -8.998954693683064e-15 -6.6604418629200975e-15 -73.97839524164917 1.5902773407317584e-15 -2.2069531490250793e-32 -1.5902773407317584e-15
-0.0 0.8442670440891085 0.0 0.15227899175617576 11.59086053547787 -131.34407348723974 1.590277340731758e-15 1.590277340731758e-15 1.590277340731758e-15 17.631978054548686 22.536810149343395 -12.407641692968246 2.2069531490250793e-32 -3.1805546814635164e-15 7.951386703658791e-16 11.208445276551219 13.825349545111965 -8.771837317291311 4.09215686389403 17.32937421662839 8.235571733190127 0.0 0.0 4.969616689786745e-16 -4.903974765061482 -14.48913597520069 -1.7673512535647895 4.532171830791351e-15 8.97879163996895e-15 -16.696113956701108 4.8473241245120455 3.2858660235613906 166.92181465888294 133.82087510790126 -31.603416690011876 -129.90313358254602 3.6965521714236645e-15 1.0855531636316867e-14 75.01014287522082 7.951386703658792e-16 -3.180554681463516e-15 6.361109362927032e-15 -140.26377807784348 -13.537292207027134 133.8946091195443 -1.2433779773650532e-15 6.351399524437255e-15 -72.82631387433874 -1.987846675914698e-15 1.5902773407317584e-15 2.758691436281349e-32
-0.0 0.8442670440891085 0.0 -0.1933287010142388 10.820255328292111 -129.1881925043997 0.0 0.0 5.466578358765419e-16 17.683410829134193 21.849542585773374 -12.23626380240839 0.0 0.0 -6.522621905345103e-17 11.049823487876164 13.508626386414587 -8.618174047037162 4.353931601550533 17.00269026236733 8.028063848607863 0.0 0.0 1.987846675914698e-16 -5.599592198053353 -14.305565847871561 -1.8837743260374784 -1.0958931034432262e-15 3.3828875843057425e-15 -17.230434567080273 4.101477037975057 3.1757911004533557 167.27652481624744 133.128680619776 -32.12823750561437 -129.3932985710789 1.1996736172726897e-15 8.915615955516243e-15 74.6727724412423 -7.951386703658792e-16 0.0 0.0 -139.95059979109303 -12.036501340807034 134.46081344099414 -1.751554383191356e-15 3.054255527608016e-16 -72.91298379987265 2.3854160110976376e-15 0.0 0.0
-0.0 0.8442670440891085 0.0 -0.22594988492481458 10.92923340121222 -130.7557508338856 0.0 0.0 -1.8387581752210955e-15 17.166751024994518 22.43420143654044 -12.304988995938343 0.0 0.0 -1.5530052155583578e-15 10.760767298298166 13.953975803543786 -8.791035988582145 3.8320402735351387 17.134984224924622 8.618900257675232 0.0 0.0 -2.435112177995505e-15 -5.337293920964388 -14.59992119895552 -1.8823259603250535 2.0239489944850476e-15 2.9237887355189213e-15 -16.25457611470805 4.188396620587682 3.545995460223283 166.39139969201443 134.16524059263358 -31.863034991968426 -129.33630004936558 1.5795376062258544e-15 3.1859019213941073e-15 74.1264096456183 7.951386703658792e-16 0.0 0.0 -140.59265365730727 -13.181439594297082 133.88066914138292 -4.1663851824975354e-16 7.853147308561535e-16 -70.97468828392753 3.975693351829396e-16 0.0 0.0
-0.0 0.8442670440891085 0.0 -0.01955672543696044 11.317934823872429 -132.13533591284283 7.951386703658789e-16 1.590277340731758e-15 8.74652537402467e-15 17.46796661175757 23.549852788335876 -12.873073249495448 0.0 0.0 1.3914926731402886e-15 10.675769120965278 14.785767350609925 -9.045112644427139 4.1637954218267765 17.39619337884647 8.5989239854048 0.0 0.0 -1.341796506242421e-15 -4.52201472324467 -14.028659538410503 -1.5511112011464747 3.1513060962483986e-15 -4.3034633671866064e-16 -15.552564231955055 4.617539131570885 3.0366634930933194 166.57277579464431 133.40631439169144 -31.06947231945364 -130.15830687496097 3.0005286575233212e-15 6.4479817140155394e-15 76.96064905410876 2.3854160110976384e-15 -1.3241718894150476e-31 -6.361109362927035e-15 -141.13831963246605 -13.187421934121216 133.51018176315313 5.168285265006665e-15 -2.385667528484411e-15 -73.74537188900975 1.1927080055488188e-15 1.6552148617688095e-32 1.5902773407317584e-15
-0.0 0.8442670440891085 0.0 0.04395196380766395 11.570052888957463 -132.21832337673368 0.0 0.0 -4.969616689786745e-17 17.339326541022196 23.15831022677161 -12.500742624147968 0.0 0.0 -2.8699536383518445e-15 10.750983533591157 13.742729098793937 -8.742416199257578 3.612410904446684 18.067014881872897 8.428989891482608 1.5902773407317584e-15 -1.8621167194899106e-32 -1.341796506242421e-15 -4.738018554681233 -14.900271982017879 -1.7631843090413868 4.677301330681959e-16 3.1459746668400718e-15 -16.913093433113538 4.6854811646398975 3.9817245966711203 168.0084990791452 132.05507167398085 -30.465469926451902 -131.8534384141796 1.2721857829655944e-15 -6.9972268608726475e-15 73.73920426215304 3.1805546814635168e-15 0.0 0.0 -140.6998165137105 -13.852330137228297 133.44193319188477 5.2256022241062616e-15 -2.2573576438760516e-15 -70.91630857443 2.782985346280577e-15 0.0 0.0
-0.0 0.8442670440891085 0.0 0.028306027681906498 11.924363481568868 -134.38100302572278 7.951386703658792e-16 1.5902773407317584e-15 2.236327510404035e-15 17.377255510379243 25.180955197539536 -12.83641147035803 0.0 0.0 1.5654292572828246e-15 9.91728471039252 14.193784799762424 -8.556825496992147 4.25014538053068 18.563498771012764 8.564813056273392 0.0 0.0 -1.0436195048552165e-15 -4.101792094020193 -14.826014045360447 -1.6690142933201422 1.177671547445797e-15 -3.355294298353125e-15 -14.449073218866356 4.755512404004553 3.6253801719882923 168.39243997792144 133.06308746234023 -30.441009619852466 -130.36643186752264 -6.36117206534574e-15 3.1804292735356434e-15 73.74205442894258 7.951386703658792e-16 0.0 0.0 -141.26473890871486 -13.81144653100575 133.16897564828395 1.5349320796647074e-15 1.0198984740932732e-14 -72.22301908952518 -1.5902773407317584e-15 0.0 0.0
-0.0 0.8442670440891085 0.0 -0.028896780650569207 11.676372722174502 -136.7512423843437 0.0 0.0 -2.7332891793827097e-15 16.291223924460205 25.27323932798738 -12.594280283250022 0.0 0.0 -2.9569219304231134e-15 8.846349570432732 13.902004049286528 -8.465463396035833 3.0942559817083874 18.89383564340139 9.361937373810933 -1.5902773407317584e-15 0.0 0.0 -3.5257642215722163 -15.058712765680106 -1.478837280265602 -3.631360179233475e-16 -3.1597563694478516e-15 -13.111946946561574 4.249466116854687 3.941165556580643 168.84413675648034 131.97892278934484 -29.726128597045864 -131.10755215614856 8.282042484689346e-15 1.016752426464044e-14 73.5978569210009 -1.5902773407317584e-15 0.0 0.0 -141.6494849656477 -14.40344016633202 132.41878031060037 -4.916128556358499e-15 8.070709858142348e-15 -72.80808044705685 -3.578124016646457e-15 7.951386703658794e-16 -3.1805546814635168e-15
-0.0 0.8442670440891085 0.0 0.012115683594840325 11.489281347178567 -135.6094409674032 7.951386703658792e-16 -1.7241821476758433e-32 -2.4848083448933726e-15 16.931158465586424 25.246913485240764 -13.103849410951376 0.0 0.0 -4.969616689786744e-16 9.410511253992809 13.458925971544353 -8.7763889743876 3.1591623133344404 19.392797288642637 9.33825489249166 0.0 0.0 2.882377680076312e-15 -3.8583065512381296 -15.012393464888735 -1.5314225364229093 -7.794522886134218e-16 -6.313174039807018e-15 -14.07674124282253 4.097839408828521 3.06612115634569 168.7121311092195 132.4455205958606 -30.002934704910675 -130.648578027803 4.453814037737614e-15 -6.288057576154635e-16 73.92777106473991 1.5902773407317584e-15 0.0 0.0 -142.02021530589008 -14.453737238692932 132.33705979797173 5.437051504991962e-15 -1.9868272957051936e-15 -72.03779134241184 -3.975693351829396e-16 0.0 0.0
